<svg width="24" height="27" viewBox="0 0 24 27" fill="none" xmlns="http://www.w3.org/2000/svg">
<path d="M8.25 2.125V0.25H15.75V2.125H8.25ZM11.0625 16.0938H12.9375V8.90625H11.0625V16.0938ZM12 26.4688C10.4583 26.4688 9.00521 26.1719 7.64062 25.5781C6.27604 24.9844 5.08333 24.1771 4.0625 23.1562C3.04167 22.1354 2.23438 20.9427 1.64062 19.5781C1.04688 18.2135 0.75 16.7604 0.75 15.2188C0.75 13.6771 1.04688 12.224 1.64062 10.8594C2.23438 9.49479 3.04167 8.30208 4.0625 7.28125C5.08333 6.26042 6.27604 5.45312 7.64062 4.85938C9.00521 4.26562 10.4583 3.96875 12 3.96875C13.3958 3.96875 14.7083 4.20312 15.9375 4.67188C17.1667 5.14062 18.2604 5.79167 19.2188 6.625L20.8125 5.03125L22.125 6.34375L20.5312 7.9375C21.2812 8.77083 21.9219 9.78125 22.4531 10.9688C22.9844 12.1562 23.25 13.5729 23.25 15.2188C23.25 16.7604 22.9531 18.2135 22.3594 19.5781C21.7656 20.9427 20.9583 22.1354 19.9375 23.1562C18.9167 24.1771 17.724 24.9844 16.3594 25.5781C14.9948 26.1719 13.5417 26.4688 12 26.4688ZM12 24.5938C14.6042 24.5938 16.8177 23.6823 18.6406 21.8594C20.4635 20.0365 21.375 17.8229 21.375 15.2188C21.375 12.6146 20.4635 10.401 18.6406 8.57812C16.8177 6.75521 14.6042 5.84375 12 5.84375C9.39583 5.84375 7.18229 6.75521 5.35938 8.57812C3.53646 10.401 2.625 12.6146 2.625 15.2188C2.625 17.8229 3.53646 20.0365 5.35938 21.8594C7.18229 23.6823 9.39583 24.5938 12 24.5938Z" fill="black"/>
</svg>
